<?xml version="1.0" encoding="utf-8"?>
<!-- Generator: Adobe Illustrator 23.0.3, SVG Export Plug-In . SVG Version: 6.00 Build 0)  -->
<svg version="1.1" id="Layer_1" xmlns="http://www.w3.org/2000/svg" xmlns:xlink="http://www.w3.org/1999/xlink" x="0px" y="0px"
	 viewBox="0 0 526 196.9" style="enable-background:new 0 0 526 196.9;" xml:space="preserve">
<style type="text/css">
	.st0{fill:#FFFFFF;}
</style>
<title>Asset 1</title>
<rect class="st0" width="526" height="196.9"/>
<rect x="15.5" y="15.4" class="st0" width="124" height="166"/>
<path class="st0" d="M289.3,116c-0.4-6.9-5.6-12.7-10.6-16.8c3.9-10.1,5.2-17.9,4-23.8c-1-4.8-2.6-7.9-4.4-9.2
	c-1.1-1.4-3.6-1.8-5.5-1.8h-33.5c-3.4,0-6.1,2.8-6.1,6.2c0,0,0,0,0,0v55.3c0,3.4,2.7,6.2,6.1,6.2c0.3,0,0.5,0,0.8-0.1
	c0.3,0,0.5,0.1,0.8,0.1h37.7l1.5-1C288.1,126.1,289.5,120.1,289.3,116z M274.9,119.9h-29.5V77h25c0.2,0.3,0.4,0.7,0.4,1.1
	c0.3,1.7,0.4,5.5-2.2,13.3h-15.1v12.4h9.7c0.3,0.2,0.6,0.4,0.9,0.6c5.4,2.8,13,8.7,13.1,12.3C277.3,117.8,276,119,274.9,119.9
	L274.9,119.9z"/>
<path class="st0" d="M335.9,133h-14.1c-14.8,0-26.8-12.2-26.8-27.3V91.3c0-15.1,12-27.4,26.8-27.4h14c14.8,0,26.8,12.3,26.8,27.4
	v14.4C362.6,120.8,350.6,133,335.9,133z M321.8,77.7c-7.4,0.1-13.4,6.2-13.3,13.6v14.4c-0.1,7.4,5.9,13.5,13.3,13.6h14
	c7.4-0.1,13.4-6.2,13.3-13.6c0,0,0,0,0,0V91.3c0.1-7.4-5.9-13.5-13.3-13.6L321.8,77.7z"/>
<polygon class="st0" points="413.5,65.7 367.6,65.7 367.6,78.7 384.1,78.7 384.1,131.3 396.9,131.3 396.9,78.7 413.5,78.7 "/>
<path class="st0" d="M198.8,133h-14.1c-14.8,0-26.8-12.2-26.8-27.3V91.3c0-15.1,12-27.4,26.8-27.4h14.1c14.8,0,26.8,12.3,26.8,27.4
	v14.4C225.6,120.8,213.6,133,198.8,133z M184.8,77.7c-7.4,0.1-13.4,6.2-13.3,13.6v14.4c-0.1,7.4,5.9,13.5,13.3,13.6h14.1
	c7.4-0.1,13.4-6.2,13.3-13.6c0,0,0,0,0,0V91.3c0.1-7.4-5.9-13.5-13.3-13.6L184.8,77.7z"/>
<path class="st0" d="M504.7,111.6c0-10.2-7.1-18.6-16.2-19.3v-0.1h-28.7c-2.2-0.6-3.9-3.2-3.9-6.2c0-3.4,2.2-6.3,4.7-6.3l0,0h40.4
	V66.5H460l0,0c-9.4,0.4-16.9,8.9-16.9,19.4c0,10.7,7.9,19.4,17.5,19.4v-0.1h26.5v0.1c2.6,0,4.7,2.9,4.7,6.3s-2.2,6.3-4.7,6.3v0.1
	H443v13.1h44.3V131C496.9,130.9,504.7,122.3,504.7,111.6z"/>
<rect x="421.5" y="65.5" class="st0" width="12.8" height="67.4"/>
<path class="st0" d="M127.7,174.4l-45.6-79c-1,1.4-2.3,2.7-2.8,4.6c-0.3,1.2-1.4,1.2-2.2,0.6c-1,1.7-2.4,3.1-4.1,4.1
	c-0.2,2-0.4,4-0.7,5.9l36.9,63.9L127.7,174.4z"/>
<path class="st0" d="M48.5,103.3c-0.6,0.5-1.5,0.4-2-0.2c-0.1-0.1-0.1-0.2-0.2-0.3c-1.8,0.8-3.7,1.2-5.6,1.2
	c-1.2,1.2-2.3,2.5-3.5,3.7v66.7h16v-73.2C51.5,101.8,49.9,102.4,48.5,103.3z"/>
<path class="st0" d="M112.7,72.3l9.4-6.6c-0.8-3.1-0.8-3.2-1.7-6.2L109,58.4l-2.8-4.9L111,43l-4.6-4.6L96,43.3l-4.9-2.8L90.1,29
	l-6.2-1.7l-6.7,9.4h-5.6l-6.7-9.4L58.7,29l-1.1,11.5l-4.9,2.8l-10.5-4.8c-2.3,2.3-2.3,2.3-4.6,4.6l4.8,10.5l-2.8,4.9l-11.5,1.1
	c-0.8,3.1-0.8,3.1-1.7,6.2l9.4,6.6v5.6l-9.4,6.6c0.8,3.1,0.8,3.2,1.7,6.2l11.5,1.1l2.8,4.9l-4.8,10.5c2.3,2.3,2.3,2.3,4.6,4.6
	l10.5-4.8l4.9,2.8l1.1,11.5l6.2,1.7l6.7-9.4h5.6l6.7,9.4l6.2-1.7l1-11.5l5-2.8l10.4,4.8c2.3-2.3,2.3-2.3,4.6-4.6l-4.8-10.5l2.8-4.9
	l11.5-1.1c0.8-3.1,0.8-3.1,1.7-6.2l-9.4-6.6L112.7,72.3z M74.4,99.3c-13.4,0-24.2-10.8-24.2-24.2c0-13.4,10.8-24.2,24.2-24.2
	c13.4,0,24.2,10.8,24.2,24.2C98.6,88.5,87.7,99.3,74.4,99.3C74.4,99.3,74.4,99.3,74.4,99.3z"/>
<path class="st0" d="M83.8,27.4l6.2,1.6l1,11.5l4.9,2.9l10.4-4.8L111,43l-4.8,10.5l2.8,4.9l11.5,1.1c0.8,3.1,0.8,3.1,1.7,6.2
	l-9.4,6.6v5.6l9.4,6.6c-0.8,3.1-0.8,3.2-1.7,6.2L109,91.8l-2.8,4.9l4.8,10.5c-2.3,2.3-2.3,2.3-4.6,4.6L96,106.9l-4.9,2.8l-1,11.5
	l-6.2,1.7l-6.7-9.4h-5.7l-6.7,9.4l-6.2-1.7l-1.1-11.5l-4.9-2.8l-10.5,4.8c-2.3-2.3-2.3-2.3-4.6-4.6l4.8-10.5l-2.8-4.9l-11.5-1.1
	c-0.8-3.1-0.8-3.1-1.7-6.2l9.4-6.6v-5.6l-9.4-6.6c0.8-3.1,0.8-3.2,1.7-6.2l11.5-1.1l2.8-4.9L37.8,43c2.3-2.3,2.3-2.3,4.6-4.6
	l10.5,4.8l4.9-2.8L58.7,29l6.2-1.7l6.7,9.4h5.6L83.8,27.4 M74.4,99.3c13.4,0,24.2-10.8,24.2-24.2c0-13.4-10.8-24.2-24.2-24.2
	S50.2,61.8,50.2,75.1S61,99.3,74.4,99.3L74.4,99.3 M82.1,22.7L80.5,25l-5.4,7.7h-1.4L68.3,25l-1.7-2.3l-2.8,0.8l-2.5,0.7l-3.8,1
	l-2.8,0.7l-0.3,2.9L53.7,38l-1.2,0.7L44,34.8l-2.6-1.2l-2,2l-4.6,4.6l-2,2l1.2,2.6l4,8.6l-0.7,1.2L28,55.3l-2.9,0.3l-0.7,2.8
	l-0.9,3.4l-0.8,2.8L22,67.4l2.3,1.6l7.7,5.4v1.4l-7.7,5.4l-2.3,1.7l0.7,2.8l0.7,2.6l1,3.6l0.7,2.8l2.9,0.3l9.3,0.9l0.7,1.2l-4,8.5
	l-1.2,2.6l2,2l4.6,4.6l2,2l2.6-1.2l8.5-3.9l1.2,0.7l0.9,9.3l0.3,2.8l2.8,0.7l3.8,1l2.5,0.7l2.8,0.8l1.7-2.3l5.4-7.7H75l5.4,7.7
	l1.7,2.3l2.8-0.8l2.4-0.7l3.8-1l2.8-0.7l0.3-2.8l0.9-9.3l1.2-0.7l8.5,3.9l2.6,1.2l2-2l4.6-4.6l2-2l-1.2-2.6l-3.9-8.5l0.7-1.2
	l9.3-0.9l2.9-0.3l0.7-2.8l0.4-1.4l1.3-4.8l0.7-2.8l-2.3-1.7l-7.7-5.4v-1.4l7.8-5.4l2.3-1.7l-0.7-2.8l-1.4-5.1l-0.3-1.2l-0.7-2.8
	l-2.9-0.3l-9.3-0.9l-0.7-1.2l3.9-8.5l1.2-2.6l-2-2l-4.6-4.6l-2-2l-2.6,1.2l-8.5,3.9L95,38l-0.9-9.3l-0.3-2.9l-2.8-0.7l-3.8-1
	l-2.4-0.6L82.1,22.7L82.1,22.7z M74.4,95.2c-11.1,0-20.1-9-20.1-20.1S63.3,55,74.4,55s20.1,9,20.1,20.1l0,0
	C94.4,86.2,85.5,95.2,74.4,95.2z"/>
<rect width="526" height="196.9"/>
<rect x="15.5" y="15.4" class="st0" width="124" height="166"/>
<path class="st0" d="M289.3,116c-0.4-6.9-5.6-12.7-10.6-16.8c3.9-10.1,5.2-17.9,4-23.8c-1-4.8-2.6-7.9-4.4-9.2
	c-1.1-1.4-3.6-1.8-5.5-1.8h-33.5c-3.4,0-6.1,2.8-6.1,6.2c0,0,0,0,0,0v55.3c0,3.4,2.7,6.2,6.1,6.2c0.3,0,0.5,0,0.8-0.1
	c0.3,0,0.5,0.1,0.8,0.1h37.7l1.5-1C288.1,126.1,289.5,120.1,289.3,116z M274.9,119.9h-29.5V77h25c0.2,0.3,0.4,0.7,0.4,1.1
	c0.3,1.7,0.4,5.5-2.2,13.3h-15.1v12.4h9.7c0.3,0.2,0.6,0.4,0.9,0.6c5.4,2.8,13,8.7,13.1,12.3C277.3,117.8,276,119,274.9,119.9
	L274.9,119.9z"/>
<path class="st0" d="M335.9,133h-14.1c-14.8,0-26.8-12.2-26.8-27.3V91.3c0-15.1,12-27.4,26.8-27.4h14c14.8,0,26.8,12.3,26.8,27.4
	v14.4C362.6,120.8,350.6,133,335.9,133z M321.8,77.7c-7.4,0.1-13.4,6.2-13.3,13.6v14.4c-0.1,7.4,5.9,13.5,13.3,13.6h14
	c7.4-0.1,13.4-6.2,13.3-13.6c0,0,0,0,0,0V91.3c0.1-7.4-5.9-13.5-13.3-13.6L321.8,77.7z"/>
<polygon class="st0" points="413.5,65.7 367.6,65.7 367.6,78.7 384.1,78.7 384.1,131.3 396.9,131.3 396.9,78.7 413.5,78.7 "/>
<path class="st0" d="M198.8,133h-14.1c-14.8,0-26.8-12.2-26.8-27.3V91.3c0-15.1,12-27.4,26.8-27.4h14.1c14.8,0,26.8,12.3,26.8,27.4
	v14.4C225.6,120.8,213.6,133,198.8,133z M184.8,77.7c-7.4,0.1-13.4,6.2-13.3,13.6v14.4c-0.1,7.4,5.9,13.5,13.3,13.6h14.1
	c7.4-0.1,13.4-6.2,13.3-13.6c0,0,0,0,0,0V91.3c0.1-7.4-5.9-13.5-13.3-13.6L184.8,77.7z"/>
<path class="st0" d="M504.7,111.6c0-10.2-7.1-18.6-16.2-19.3v-0.1h-28.7c-2.2-0.6-3.9-3.2-3.9-6.2c0-3.4,2.2-6.3,4.7-6.3l0,0h40.4
	V66.5H460l0,0c-9.4,0.4-16.9,8.9-16.9,19.4c0,10.7,7.9,19.4,17.5,19.4v-0.1h26.5v0.1c2.6,0,4.7,2.9,4.7,6.3s-2.2,6.3-4.7,6.3v0.1
	H443v13.1h44.3V131C496.9,130.9,504.7,122.3,504.7,111.6z"/>
<rect x="421.5" y="65.5" class="st0" width="12.8" height="67.4"/>
<path d="M127.7,174.4l-45.6-79c-1,1.4-2.3,2.7-2.8,4.6c-0.3,1.2-1.4,1.2-2.2,0.6c-1,1.7-2.4,3.1-4.1,4.1c-0.2,2-0.4,4-0.7,5.9
	l36.9,63.9L127.7,174.4z"/>
<path d="M48.5,103.3c-0.6,0.5-1.5,0.4-2-0.2c-0.1-0.1-0.1-0.2-0.2-0.3c-1.8,0.8-3.7,1.2-5.6,1.2c-1.2,1.2-2.3,2.5-3.5,3.7v66.7h16
	v-73.2C51.5,101.8,49.9,102.4,48.5,103.3z"/>
<path d="M112.7,72.3l9.4-6.6c-0.8-3.1-0.8-3.2-1.7-6.2L109,58.4l-2.8-4.9L111,43l-4.6-4.6L96,43.3l-4.9-2.8L90.1,29l-6.2-1.7
	l-6.7,9.4h-5.6l-6.7-9.4L58.7,29l-1.1,11.5l-4.9,2.8l-10.5-4.8c-2.3,2.3-2.3,2.3-4.6,4.6l4.8,10.5l-2.8,4.9l-11.5,1.1
	c-0.8,3.1-0.8,3.1-1.7,6.2l9.4,6.6v5.6l-9.4,6.6c0.8,3.1,0.8,3.2,1.7,6.2l11.5,1.1l2.8,4.9l-4.8,10.5c2.3,2.3,2.3,2.3,4.6,4.6
	l10.5-4.8l4.9,2.8l1.1,11.5l6.2,1.7l6.7-9.4h5.6l6.7,9.4l6.2-1.7l1-11.5l5-2.8l10.4,4.8c2.3-2.3,2.3-2.3,4.6-4.6l-4.8-10.5l2.8-4.9
	l11.5-1.1c0.8-3.1,0.8-3.1,1.7-6.2l-9.4-6.6L112.7,72.3z M74.4,99.3c-13.4,0-24.2-10.8-24.2-24.2c0-13.4,10.8-24.2,24.2-24.2
	c13.4,0,24.2,10.8,24.2,24.2C98.6,88.5,87.7,99.3,74.4,99.3C74.4,99.3,74.4,99.3,74.4,99.3z"/>
<path class="st0" d="M83.8,27.4l6.2,1.6l1,11.5l4.9,2.9l10.4-4.8L111,43l-4.8,10.5l2.8,4.9l11.5,1.1c0.8,3.1,0.8,3.1,1.7,6.2
	l-9.4,6.6v5.6l9.4,6.6c-0.8,3.1-0.8,3.2-1.7,6.2L109,91.8l-2.8,4.9l4.8,10.5c-2.3,2.3-2.3,2.3-4.6,4.6L96,106.9l-4.9,2.8l-1,11.5
	l-6.2,1.7l-6.7-9.4h-5.7l-6.7,9.4l-6.2-1.7l-1.1-11.5l-4.9-2.8l-10.5,4.8c-2.3-2.3-2.3-2.3-4.6-4.6l4.8-10.5l-2.8-4.9l-11.5-1.1
	c-0.8-3.1-0.8-3.1-1.7-6.2l9.4-6.6v-5.6l-9.4-6.6c0.8-3.1,0.8-3.2,1.7-6.2l11.5-1.1l2.8-4.9L37.8,43c2.3-2.3,2.3-2.3,4.6-4.6
	l10.5,4.8l4.9-2.8L58.7,29l6.2-1.7l6.7,9.4h5.6L83.8,27.4 M74.4,99.3c13.4,0,24.2-10.8,24.2-24.2c0-13.4-10.8-24.2-24.2-24.2
	S50.2,61.8,50.2,75.1S61,99.3,74.4,99.3L74.4,99.3 M82.1,22.7L80.5,25l-5.4,7.7h-1.4L68.3,25l-1.7-2.3l-2.8,0.8l-2.5,0.7l-3.8,1
	l-2.8,0.7l-0.3,2.9L53.7,38l-1.2,0.7L44,34.8l-2.6-1.2l-2,2l-4.6,4.6l-2,2l1.2,2.6l4,8.6l-0.7,1.2L28,55.3l-2.9,0.3l-0.7,2.8
	l-0.9,3.4l-0.8,2.8L22,67.4l2.3,1.6l7.7,5.4v1.4l-7.7,5.4l-2.3,1.7l0.7,2.8l0.7,2.6l1,3.6l0.7,2.8l2.9,0.3l9.3,0.9l0.7,1.2l-4,8.5
	l-1.2,2.6l2,2l4.6,4.6l2,2l2.6-1.2l8.5-3.9l1.2,0.7l0.9,9.3l0.3,2.8l2.8,0.7l3.8,1l2.5,0.7l2.8,0.8l1.7-2.3l5.4-7.7H75l5.4,7.7
	l1.7,2.3l2.8-0.8l2.4-0.7l3.8-1l2.8-0.7l0.3-2.8l0.9-9.3l1.2-0.7l8.5,3.9l2.6,1.2l2-2l4.6-4.6l2-2l-1.2-2.6l-3.9-8.5l0.7-1.2
	l9.3-0.9l2.9-0.3l0.7-2.8l0.4-1.4l1.3-4.8l0.7-2.8l-2.3-1.7l-7.7-5.4v-1.4l7.8-5.4l2.3-1.7l-0.7-2.8l-1.4-5.1l-0.3-1.2l-0.7-2.8
	l-2.9-0.3l-9.3-0.9l-0.7-1.2l3.9-8.5l1.2-2.6l-2-2l-4.6-4.6l-2-2l-2.6,1.2l-8.5,3.9L95,38l-0.9-9.3l-0.3-2.9l-2.8-0.7l-3.8-1
	l-2.4-0.6L82.1,22.7L82.1,22.7z M74.4,95.2c-11.1,0-20.1-9-20.1-20.1S63.3,55,74.4,55s20.1,9,20.1,20.1l0,0
	C94.4,86.2,85.5,95.2,74.4,95.2z"/>
</svg>
